# xmcd
#
# Track frame offsets:
#	150
#	12036
#	24231
#	35876
#	45354
#	58825
#	67086
#	75739
#	86645
#	99160
#	110513
#	123890
#	134308
#	152642
#	165756
#	178584
#	189273
#	197946
#	209991
#	224226
#	240718
#	253211
#
# Disc length: 3598 seconds
#
# Revision: 0
# Processed by: cddbd v1.4PL0 Copyright (c) Steve Scherf et al.
# Submitted via: EasyCDDAExtractor 4.6.9.1
#
DISCID=370e0c16
DTITLE=Johnny Cash - Reader's Digest Classics-Disc 1
DYEAR=1999
DGENRE=Country
TTITLE0=Ring Of Fire
TTITLE1=Understand Your Man
TTITLE2=I Walk The Line
TTITLE3=I Got Stripes
TTITLE4=Don't Think Twice, It's Alright
TTITLE5=Five Feet High And Rising
TTITLE6=Guess Things Happen That Way
TTITLE7=Blistered
TTITLE8=Folsom Prison Blues
TTITLE9=San Quentin
TTITLE10=If I Were A Carpenter
TTITLE11=Kate
TTITLE12=One Piece At A Time
TTITLE13=Man In Black
TTITLE14=The One On The Right Is On The Left
TTITLE15=Hey, Porter
TTITLE16=The Rebel - Johnny Yuma
TTITLE17=Flesh And Blood
TTITLE18=The Long Black Veil
TTITLE19=The Baron
TTITLE20=Any Old Wind That Blows
TTITLE21=A Boy Named Sue
EXTD=
EXTT0=
EXTT1=
EXTT2=
EXTT3=
EXTT4=
EXTT5=
EXTT6=
EXTT7=
EXTT8=
EXTT9=
EXTT10=
EXTT11=
EXTT12=
EXTT13=
EXTT14=
EXTT15=
EXTT16=
EXTT17=
EXTT18=
EXTT19=
EXTT20=
EXTT21=
PLAYORDER=
